<svg xmlns="http://www.w3.org/2000/svg" xmlns:xlink="http://www.w3.org/1999/xlink" viewBox="0 0 989.16296 576"><defs><style>.cls-1{isolation:isolate;}.cls-2{fill:#d70c19;}.cls-3{font-size:18.76821px;}.cls-11,.cls-3,.cls-8{fill:#fff;}.cls-11,.cls-12,.cls-13,.cls-14,.cls-15,.cls-23,.cls-24,.cls-3{font-family:SourceHanSansCN-Bold-GBpc-EUC-H, Source Han Sans CN;font-weight:700;}.cls-4{font-size:18.66838px;fill:#595757;font-family:SourceHanSansCN-Light-GBpc-EUC-H, Source Han Sans CN;}.cls-5{fill:#559ca1;}.cls-6{fill:#a46623;}.cls-7{fill:#709a39;}.cls-8{mix-blend-mode:soft-light;}.cls-9{fill:#970013;}.cls-10,.cls-24{fill:#d70c18;}.cls-11{font-size:21.0776px;}.cls-12{font-size:19.75144px;fill:#4e9ba2;}.cls-13{font-size:19.7514px;}.cls-13,.cls-15{fill:#c2751c;}.cls-14{font-size:19.75132px;fill:#659030;}.cls-15{font-size:19.75159px;}.cls-16{fill:url(#linear-gradient);}.cls-17{fill:url(#linear-gradient-2);}.cls-18{fill:url(#linear-gradient-3);}.cls-19{fill:url(#linear-gradient-4);}.cls-20{fill:url(#未命名的渐变_20);}.cls-21{fill:url(#linear-gradient-5);}.cls-22{fill:url(#linear-gradient-6);}.cls-23{font-size:24.08019px;fill:#e50012;}.cls-24{font-size:19.11222px;}.cls-25{fill:url(#未命名的渐变_20-2);}.cls-26{fill:url(#linear-gradient-7);}.cls-27{fill:url(#linear-gradient-8);}.cls-28{fill:url(#未命名的渐变_20-3);}.cls-29{fill:url(#linear-gradient-9);}.cls-30{fill:url(#linear-gradient-10);}.cls-31{fill:url(#未命名的渐变_20-4);}.cls-32{fill:url(#linear-gradient-11);}.cls-33{fill:url(#linear-gradient-12);}</style><linearGradient id="linear-gradient" x1="714.86468" y1="358.27016" x2="714.86468" y2="247.62494" gradientUnits="userSpaceOnUse"><stop offset="0.00365" stop-color="#60c0c0"/><stop offset="0.52426" stop-color="#1f98d6"/><stop offset="1" stop-color="#234499"/></linearGradient><linearGradient id="linear-gradient-2" x1="714.86468" y1="333.0406" x2="714.86468" y2="259.06664" xlink:href="#linear-gradient"/><linearGradient id="linear-gradient-3" x1="346.9013" y1="358.27016" x2="346.9013" y2="247.62494" xlink:href="#linear-gradient"/><linearGradient id="linear-gradient-4" x1="346.9013" y1="333.0406" x2="346.9013" y2="259.06664" xlink:href="#linear-gradient"/><linearGradient id="未命名的渐变_20" x1="784.91902" y1="128.78364" x2="936.56313" y2="128.78364" gradientUnits="userSpaceOnUse"><stop offset="0" stop-color="#e50012"/><stop offset="0.41277" stop-color="#c10114"/><stop offset="0.77921" stop-color="#a70115"/><stop offset="0.99964" stop-color="#9e0116"/></linearGradient><linearGradient id="linear-gradient-5" x1="2053.15714" y1="-559.80272" x2="2053.15714" y2="-600.47647" gradientTransform="matrix(-1, 0, 0, 1, 2914.8125, 708.92288)" gradientUnits="userSpaceOnUse"><stop offset="0" stop-color="#fff"/><stop offset="1" stop-color="#e5e5e4"/></linearGradient><linearGradient id="linear-gradient-6" x1="2053.15612" y1="-601.26659" x2="2053.15612" y2="-559.0095" gradientTransform="matrix(-1, 0, 0, 1, 2914.8125, 708.92288)" gradientUnits="userSpaceOnUse"><stop offset="0" stop-color="#fff"/><stop offset="1" stop-color="#e1e0df"/></linearGradient><linearGradient id="未命名的渐变_20-2" x1="784.91902" y1="248.07407" x2="936.56313" y2="248.07407" xlink:href="#未命名的渐变_20"/><linearGradient id="linear-gradient-7" x1="2053.15714" y1="-440.51229" x2="2053.15714" y2="-481.18605" xlink:href="#linear-gradient-5"/><linearGradient id="linear-gradient-8" x1="2053.15612" y1="-481.97616" x2="2053.15612" y2="-439.71907" xlink:href="#linear-gradient-6"/><linearGradient id="未命名的渐变_20-3" x1="784.91902" y1="367.96853" x2="936.56313" y2="367.96853" xlink:href="#未命名的渐变_20"/><linearGradient id="linear-gradient-9" x1="2053.15714" y1="-320.61783" x2="2053.15714" y2="-361.29159" xlink:href="#linear-gradient-5"/><linearGradient id="linear-gradient-10" x1="2053.15612" y1="-362.0817" x2="2053.15612" y2="-319.82461" xlink:href="#linear-gradient-6"/><linearGradient id="未命名的渐变_20-4" x1="784.91902" y1="487.99619" x2="936.56313" y2="487.99619" xlink:href="#未命名的渐变_20"/><linearGradient id="linear-gradient-11" x1="2053.15714" y1="-200.59017" x2="2053.15714" y2="-241.26392" xlink:href="#linear-gradient-5"/><linearGradient id="linear-gradient-12" x1="2053.15612" y1="-242.05404" x2="2053.15612" y2="-199.79694" xlink:href="#linear-gradient-6"/></defs><title>iconset0250</title><g class="cls-1"><g id="图层_1" data-name="图层 1"><rect class="cls-2" x="67.04204" y="24.36644" width="208.59909" height="32.28651" rx="5.66929" ry="5.66929"/><rect class="cls-2" x="744.73425" y="24.36644" width="208.59909" height="32.28651" rx="5.66929" ry="5.66929"/><text class="cls-3" transform="translate(149.72168 49.2439)">市 场</text><rect class="cls-2" x="412.21795" y="24.36644" width="208.59909" height="32.28651" rx="5.66929" ry="5.66929"/><text class="cls-3" transform="translate(495.29199 49.2439)">产 品</text><text class="cls-3" transform="translate(828.2041 49.2439)">业 务</text><text class="cls-4" transform="translate(88.31348 175.36011)">不间断用电需求的行业<tspan x="0" y="52.27148">有应急用电需求的行业</tspan><tspan x="0" y="104.54297">有分时电价的消费市场</tspan><tspan x="0" y="156.81445">低速电动车的使用行业</tspan></text><text class="cls-4" transform="translate(88.31348 461.93433)">新能源发电的储能配套<tspan x="0" y="52.27148">电力市场辅助服务</tspan></text><path class="cls-5" d="M646.3405,280.87967h13.14283A134.08093,134.08093,0,0,0,531.44865,152.84545v13.14237A120.93848,120.93848,0,0,1,646.3405,280.87967Z"/><path class="cls-6" d="M646.3405,292.37161A120.93778,120.93778,0,0,1,531.44865,407.263v13.14273A134.08083,134.08083,0,0,0,659.48333,292.37161H646.3405Z"/><path class="cls-7" d="M405.065,292.37161h-13.1419A134.08,134.08,0,0,0,519.95718,420.40573V407.263A120.93918,120.93918,0,0,1,405.065,292.37161Z"/><path class="cls-6" d="M391.92306,280.87967H405.065A120.93988,120.93988,0,0,1,519.95718,165.98782V152.84545A134.08009,134.08009,0,0,0,391.92306,280.87967Z"/><path class="cls-8" d="M398.49349,280.87967A127.34417,127.34417,0,0,1,519.95718,159.416v-6.57053A134.08009,134.08009,0,0,0,391.92306,280.87967Z"/><path class="cls-8" d="M531.44865,159.416A127.34374,127.34374,0,0,1,652.91281,280.87967h6.57052A134.08093,134.08093,0,0,0,531.44865,152.84545Z"/><path class="cls-8" d="M519.95718,413.8353A127.34388,127.34388,0,0,1,398.49349,292.37161h-6.57043A134.08,134.08,0,0,0,519.95718,420.40573Z"/><path class="cls-8" d="M652.91281,292.37161A127.34346,127.34346,0,0,1,531.44865,413.8353v6.57043A134.08083,134.08083,0,0,0,659.48333,292.37161Z"/><circle class="cls-9" cx="525.70329" cy="286.62573" r="78.49927" transform="translate(146.81232 750.26341) rotate(-79.34409)"/><circle class="cls-10" cx="525.7033" cy="286.62574" r="71.90302" transform="translate(146.81232 750.26343) rotate(-79.34409)"/><text class="cls-11" transform="translate(462.66748 296.06323)">智能监控系统</text><text class="cls-12" transform="matrix(0.80078, 0.59896, -0.59896, 0.80078, 561.01966, 203.07019)">移</text><text class="cls-12" transform="translate(576.48462 214.57428) rotate(45.97212)">动</text><text class="cls-12" transform="translate(589.88109 228.37357) rotate(55.33944)">电</text><text class="cls-12" transform="translate(600.84469 244.18831) rotate(64.40871)">源</text><text class="cls-13" transform="matrix(0.53029, -0.84781, 0.84781, 0.53029, 438.43824, 253.41147)">动</text><text class="cls-13" transform="translate(448.61734 237.04281) rotate(-48.79841)">力</text><text class="cls-13" transform="translate(461.25443 222.54623) rotate(-39.42919)">电</text><text class="cls-13" transform="matrix(0.86287, -0.50543, 0.50543, 0.86287, 476.10406, 210.30482)">池</text><text class="cls-14" transform="matrix(0.55058, 0.83478, -0.83478, 0.55058, 429.3093, 329.05675)">储</text><text class="cls-14" transform="translate(440.9444 346.60863) rotate(48.19846)">能</text><text class="cls-14" transform="matrix(0.78665, 0.6174, -0.6174, 0.78665, 455.22204, 362.44138)">系</text><text class="cls-14" transform="translate(472.25257 375.61471) rotate(26.67824)">统</text><text class="cls-15" transform="matrix(0.73605, -0.67692, 0.67692, 0.73605, 587.13422, 376.89809)">新</text><text class="cls-15" transform="translate(602.68138 362.50955) rotate(-51.83025)">能</text><text class="cls-15" transform="matrix(0.45901, -0.88843, 0.88843, 0.45901, 615.83672, 345.58187)">源</text><path class="cls-16" d="M744.30178,296.35258l-21.79906-18.76906a1.70557,1.70557,0,0,0-2.81844,1.29265v7.87909H686.541a1.70553,1.70553,0,0,0-1.7063,1.706v18.36909a1.70529,1.70529,0,0,0,1.7063,1.70595h33.14324v7.87839a1.70509,1.70509,0,0,0,2.81844,1.293L744.30178,298.939A1.7069,1.7069,0,0,0,744.30178,296.35258Z"/><path class="cls-17" d="M684.83474,306.83037a1.70529,1.70529,0,0,0,1.7063,1.70595h33.14324v7.87839a1.70509,1.70509,0,0,0,2.81844,1.293L744.30178,298.939a1.6943,1.6943,0,0,0,.59284-1.29335H684.83474Z"/><path class="cls-18" d="M376.3384,296.35258l-21.79907-18.76906a1.70557,1.70557,0,0,0-2.81843,1.29265v7.87909H318.57766a1.70553,1.70553,0,0,0-1.7063,1.706v18.36909a1.70529,1.70529,0,0,0,1.7063,1.70595H351.7209v7.87839a1.70508,1.70508,0,0,0,2.81843,1.293L376.3384,298.939A1.70692,1.70692,0,0,0,376.3384,296.35258Z"/><path class="cls-19" d="M316.87136,306.83037a1.70529,1.70529,0,0,0,1.7063,1.70595H351.7209v7.87839a1.70508,1.70508,0,0,0,2.81843,1.293L376.3384,298.939a1.69433,1.69433,0,0,0,.59284-1.29335H316.87136Z"/><path class="cls-20" d="M784.919,128.78648a26.02017,26.02017,0,0,0,26.01935,26.01284h99.61271a26.01568,26.01568,0,0,0,0-52.03136H810.93837A26.02138,26.02138,0,0,0,784.919,128.78648Z"/><path class="cls-21" d="M794.25329,128.788c0,11.19618,11.953,20.27766,26.72211,20.33219h81.363c14.766-.04907,26.719-9.136,26.719-20.33765,0-11.11048-11.76488-20.14987-26.37559-20.3361H820.632C806.02021,108.63264,794.25329,117.672,794.25329,128.788Z"/><path class="cls-22" d="M793.2128,128.78953c0-11.45413,12.29028-20.93377,27.41712-21.13324h82.07351c15.10421.19947,27.39654,9.67755,27.39654,21.12777,0,11.60294-12.45062,21.081-27.75744,21.12933H820.96614C805.66242,149.862,793.2128,140.38545,793.2128,128.78953Zm2.081,0c0,10.72945,11.52013,19.49692,25.68161,19.54443h81.363c14.15632-.0444,25.67957-8.815,25.67957-19.5499,0-10.59619-11.37212-19.36446-25.33409-19.54989H820.64741C806.6659,109.4196,795.29379,118.191,795.29379,128.78953Z"/><text class="cls-23" transform="translate(813.51709 136.41187)">备电业务</text><text class="cls-24" transform="translate(70.64746 126.03687)">需求侧</text><text class="cls-24" transform="translate(70.64746 425.63452)">供给侧</text><path class="cls-25" d="M784.919,248.07691a26.02016,26.02016,0,0,0,26.01935,26.01283h99.61271a26.01568,26.01568,0,0,0,0-52.03135H810.93837A26.02138,26.02138,0,0,0,784.919,248.07691Z"/><path class="cls-26" d="M794.25329,248.0784c0,11.19617,11.953,20.27765,26.72211,20.33219h81.363c14.766-.04907,26.719-9.136,26.719-20.33766,0-11.11047-11.76488-20.14987-26.37559-20.33609H820.632C806.02021,227.92306,794.25329,236.96246,794.25329,248.0784Z"/><path class="cls-27" d="M793.2128,248.08c0-11.45413,12.29028-20.93377,27.41712-21.13324h82.07351c15.10421.19947,27.39654,9.67755,27.39654,21.12776,0,11.60294-12.45062,21.081-27.75744,21.12933H820.96614C805.66242,269.15238,793.2128,259.67587,793.2128,248.08Zm2.081,0c0,10.72944,11.52013,19.49691,25.68161,19.54443h81.363c14.15632-.04441,25.67957-8.815,25.67957-19.54991,0-10.59619-11.37212-19.36446-25.33409-19.54989H820.64741C806.6659,228.71,795.29379,237.4814,795.29379,248.08Z"/><text class="cls-23" transform="translate(813.51709 257.14819)">发电业务</text><path class="cls-28" d="M784.919,367.97137a26.02016,26.02016,0,0,0,26.01935,26.01283h99.61271a26.01568,26.01568,0,0,0,0-52.03135H810.93837A26.02138,26.02138,0,0,0,784.919,367.97137Z"/><path class="cls-29" d="M794.25329,367.97286c0,11.19617,11.953,20.27765,26.72211,20.33219h81.363c14.766-.04907,26.719-9.136,26.719-20.33766,0-11.11047-11.76488-20.14987-26.37559-20.33609H820.632C806.02021,347.81752,794.25329,356.85692,794.25329,367.97286Z"/><path class="cls-30" d="M793.2128,367.97442c0-11.45413,12.29028-20.93377,27.41712-21.13324h82.07351c15.10421.19947,27.39654,9.67755,27.39654,21.12776,0,11.60294-12.45062,21.081-27.75744,21.12933H820.96614C805.66242,389.04684,793.2128,379.57033,793.2128,367.97442Zm2.081,0c0,10.72944,11.52013,19.49691,25.68161,19.54443h81.363c14.15632-.04441,25.67957-8.815,25.67957-19.54991,0-10.59619-11.37212-19.36446-25.33409-19.54989H820.64741C806.6659,348.60448,795.29379,357.37586,795.29379,367.97442Z"/><text class="cls-23" transform="translate(813.51709 377.28101)">换电业务</text><path class="cls-31" d="M784.919,487.999a26.02017,26.02017,0,0,0,26.01935,26.01284h99.61271a26.01568,26.01568,0,0,0,0-52.03135H810.93837A26.02137,26.02137,0,0,0,784.919,487.999Z"/><path class="cls-32" d="M794.25329,488.00053c0,11.19617,11.953,20.27765,26.72211,20.33219h81.363c14.766-.04907,26.719-9.136,26.719-20.33766,0-11.11048-11.76488-20.14987-26.37559-20.3361H820.632C806.02021,467.84519,794.25329,476.88458,794.25329,488.00053Z"/><path class="cls-33" d="M793.2128,488.00208c0-11.45413,12.29028-20.93376,27.41712-21.13324h82.07351c15.10421.19948,27.39654,9.67756,27.39654,21.12777,0,11.60294-12.45062,21.081-27.75744,21.12933H820.96614C805.66242,509.07451,793.2128,499.598,793.2128,488.00208Zm2.081,0c0,10.72945,11.52013,19.49692,25.68161,19.54443h81.363c14.15632-.0444,25.67957-8.815,25.67957-19.5499,0-10.59619-11.37212-19.36446-25.33409-19.54989H820.64741C806.6659,468.63215,795.29379,477.40353,795.29379,488.00208Z"/><text class="cls-23" transform="translate(813.51709 497.28101)">售电业务</text><rect class="cls-10" x="69.42065" y="163.56341" width="10.47369" height="10.47369" rx="2.58564" ry="2.58564"/><rect class="cls-10" x="69.42065" y="214.22865" width="10.47369" height="10.47369" rx="2.58564" ry="2.58564"/><rect class="cls-10" x="69.42065" y="268.44294" width="10.47369" height="10.47369" rx="2.58564" ry="2.58564"/><rect class="cls-10" x="69.42065" y="322.65724" width="10.47369" height="10.47369" rx="2.58564" ry="2.58564"/><rect class="cls-10" x="69.42065" y="502.37451" width="10.47369" height="10.47369" rx="2.58564" ry="2.58564"/><rect class="cls-10" x="69.42065" y="449.52958" width="10.47369" height="10.47369" rx="2.58564" ry="2.58564"/></g></g></svg>