<?xml version="1.0" encoding="UTF-8"?>
<svg width="248px" height="28px" viewBox="0 0 248 28" version="1.1" xmlns="http://www.w3.org/2000/svg" xmlns:xlink="http://www.w3.org/1999/xlink">
    <!-- Generator: Sketch 55.1 (78136) - https://sketchapp.com -->
    <title>编组</title>
    <desc>Created with Sketch.</desc>
    <defs>
        <polygon id="path-1" points="0 27.0068 247.996 27.0068 247.996 -0.0002 0 -0.0002"></polygon>
    </defs>
    <g id="页面1" stroke="none" stroke-width="1" fill="none" fill-rule="evenodd">
        <g id="编组">
            <path d="M23.4463,11.6504 C24.0933,11.6504 24.6243,11.1504 24.6243,10.5034 L24.6243,4.0604 C24.6243,3.4134 24.0933,2.8824 23.4463,2.8824 L18.5923,2.8824 C17.9453,2.8824 17.4453,3.4134 17.4453,4.0604 L17.4453,10.5034 C17.4453,11.1504 17.9453,11.6504 18.5923,11.6504 L23.4463,11.6504 Z M18.5923,13.6504 C16.8563,13.6504 15.4443,12.2384 15.4443,10.5034 L15.4443,4.0604 C15.4443,2.3244 16.8563,0.8824 18.5923,0.8824 L23.4463,0.8824 C25.1823,0.8824 26.6243,2.3244 26.6243,4.0604 L26.6243,10.5034 C26.6243,12.2384 25.1823,13.6504 23.4463,13.6504 L18.5923,13.6504 Z M21.7693,24.8594 C22.3873,24.8594 22.8873,24.3594 22.8873,23.7124 L22.8873,21.8874 L3.8533,21.8874 L3.8533,23.7124 C3.8533,24.3594 4.3533,24.8594 4.9713,24.8594 L21.7693,24.8594 Z M3.8533,19.8874 L22.8873,19.8874 L22.8873,18.1224 C22.8873,17.4744 22.3873,16.9744 21.7693,16.9744 L4.9713,16.9744 C4.3533,16.9744 3.8533,17.4744 3.8533,18.1224 L3.8533,19.8874 Z M4.9713,26.8594 C3.2653,26.8594 1.8533,25.4474 1.8533,23.7124 L1.8533,18.1224 C1.8533,16.3864 3.2653,14.9744 4.9713,14.9744 L21.7693,14.9744 C23.4763,14.9744 24.8883,16.3864 24.8883,18.1224 L24.8883,23.7124 C24.8883,25.4474 23.4763,26.8594 21.7693,26.8594 L4.9713,26.8594 Z M0.3523,6.6194 L6.2663,6.6194 C6.3543,6.1484 6.4133,5.6774 6.4133,5.1484 L6.4133,3.8834 L0.5583,3.8834 L2.0893,0.0294 L4.0013,0.7354 L3.5013,1.8824 L13.8273,1.8824 L13.8273,3.8834 L8.4143,3.8834 L8.4143,5.1484 C8.4143,5.6484 8.3833,6.1484 8.2963,6.6194 L14.2093,6.6194 L14.2093,8.6204 L9.7663,8.6204 L14.3563,12.5034 L13.0613,14.0044 L7.4133,9.2674 C6.2073,11.5034 3.9133,13.1794 0.6473,14.2974 L0.0003,12.4154 C2.5893,11.5034 4.4133,10.2384 5.4423,8.6204 L0.3523,8.6204 L0.3523,6.6194 Z" id="Fill-1" fill="#D70C18"></path>
            <path d="M50.6543,0.0888 L50.6543,0.7948 L55.6553,0.7948 L55.6553,2.7948 L50.6543,2.7948 L50.6543,4.2358 L55.3903,4.2358 L55.3903,6.2368 L50.6543,6.2368 L50.6543,7.7078 L55.6553,7.7078 L55.6553,9.7088 L50.6543,9.7088 L50.6543,10.9148 L48.6543,10.9148 L48.6543,9.7088 L43.6523,9.7088 L43.6523,7.7078 L48.6543,7.7078 L48.6543,6.2368 L43.9173,6.2368 L43.9173,4.2358 L48.6543,4.2358 L48.6543,2.7948 L43.6523,2.7948 L43.6523,0.7948 L48.6543,0.7948 L48.6543,0.0888 L50.6543,0.0888 Z M43.4763,24.1528 L45.4763,24.1528 L45.4763,20.0638 L43.4763,20.0638 L43.4763,24.1528 Z M49.8893,26.9188 L40.4463,26.9188 C38.2393,26.9188 37.2983,25.5068 37.2983,23.7408 L37.2983,20.0648 L39.2993,20.0648 L39.2993,23.7408 C39.2993,24.3888 39.6513,24.9178 40.4463,24.9178 L49.8893,24.9178 L49.8893,26.9188 Z M52.8013,19.4458 L30.7373,19.4458 L30.7373,17.4448 L52.7723,17.4448 C53.1263,17.4448 53.3903,17.1808 53.3903,16.8278 L53.3903,16.4158 L30.8843,16.4158 L30.8843,14.4158 L53.3903,14.4158 L53.3903,13.9448 C53.3903,13.5918 53.1263,13.3268 52.7723,13.3268 L30.7373,13.3268 L30.7373,11.2968 L52.7723,11.2968 C54.2143,11.2968 55.4203,12.5028 55.4203,13.9448 L55.4203,16.8278 C55.4203,18.2698 54.2143,19.4458 52.8013,19.4458 L55.8613,25.8598 L54.0673,26.7128 L51.0373,20.3288 L52.8013,19.4458 Z M37.0923,0.0888 L37.0923,0.7948 L42.0643,0.7948 L42.0643,2.7948 L37.0923,2.7948 L37.0923,4.2358 L41.8293,4.2358 L41.8293,6.2368 L37.0923,6.2368 L37.0923,7.7078 L42.0643,7.7078 L42.0643,9.7088 L37.0923,9.7088 L37.0923,10.9148 L35.0913,10.9148 L35.0913,9.7088 L30.0913,9.7088 L30.0913,7.7078 L35.0913,7.7078 L35.0913,6.2368 L30.3553,6.2368 L30.3553,4.2358 L35.0913,4.2358 L35.0913,2.7948 L30.0913,2.7948 L30.0913,0.7948 L35.0913,0.7948 L35.0913,0.0888 L37.0923,0.0888 Z M34.1213,20.0938 C33.6213,22.6228 32.6203,24.8298 31.2383,26.7418 L29.6203,25.5358 C30.8263,23.8298 31.7383,21.9168 32.1493,19.7108 L34.1213,20.0938 Z" id="Fill-3" fill="#D70C18"></path>
            <path d="M85.2764,17.622 L76.2744,20.064 L76.2744,23.006 C76.2744,23.947 77.0394,24.712 77.9804,24.712 L85.1884,24.712 L85.1884,26.713 L77.9804,26.713 C75.9514,26.713 74.2744,25.036 74.2744,23.006 L74.2744,14.062 L76.2744,14.062 L76.2744,17.976 L84.7474,15.651 L85.2764,17.622 Z M85.2764,3.384 L76.2744,5.825 L76.2744,9.532 C76.2744,10.474 77.0394,11.238 77.9804,11.238 L85.1884,11.238 L85.1884,13.238 L77.9804,13.238 C75.9514,13.238 74.2744,11.561 74.2744,9.532 L74.2744,0.589 L76.2744,0.589 L76.2744,3.736 L84.7474,1.441 L85.2764,3.384 Z M61.0644,21.064 L70.0674,21.064 L70.0674,17.328 L61.0644,17.328 L61.0644,21.064 Z M61.0644,15.327 L70.0674,15.327 L70.0674,13.238 C70.0674,12.621 69.5674,12.092 68.9204,12.092 L62.2124,12.092 C61.5654,12.092 61.0644,12.621 61.0644,13.238 L61.0644,15.327 Z M59.0644,26.859 L59.0644,13.238 C59.0644,11.474 60.4764,10.091 62.2124,10.091 L68.9204,10.091 C70.6264,10.091 72.0674,11.474 72.0674,13.238 L72.0674,26.859 L70.0674,26.859 L70.0674,23.064 L61.0644,23.064 L61.0644,26.859 L59.0644,26.859 Z M72.0964,2.001 L72.0964,4.913 C72.0964,6.943 70.4204,8.62 68.3894,8.62 L59.0354,8.62 L61.3884,0.059 L63.3304,0.589 L61.6534,6.619 L68.3894,6.619 C69.3314,6.619 70.0964,5.854 70.0964,4.913 L70.0964,2.001 L72.0964,2.001 Z" id="Fill-5" fill="#D70C18"></path>
            <path d="M113.5732,17.7988 L114.9552,26.4778 L112.9552,26.8008 L111.5432,18.1218 L113.5732,17.7988 Z M111.5132,15.0628 C112.1612,15.0628 112.6612,14.5628 112.6612,13.8858 L112.6612,12.0318 L101.3932,12.0318 L101.3932,13.8858 C101.3932,14.5628 101.9232,15.0628 102.5702,15.0628 L111.5132,15.0628 Z M101.3932,10.0318 L112.6612,10.0318 L112.6612,8.1788 C112.6612,7.5308 112.1612,7.0308 111.5132,7.0308 L102.5702,7.0308 C101.9232,7.0308 101.3932,7.5308 101.3932,8.1788 L101.3932,10.0318 Z M108.2482,17.0638 L108.2482,23.8298 C108.2482,25.5658 106.8062,27.0068 105.1002,27.0068 L104.1292,27.0068 L104.1292,25.0058 L105.1002,25.0058 C105.7472,25.0058 106.2472,24.4768 106.2472,23.8298 L106.2472,17.0638 L102.5702,17.0638 C100.8342,17.0638 99.3922,15.6218 99.3922,13.8858 L99.3922,8.1788 C99.3922,6.4438 100.8342,5.0308 102.5702,5.0308 L103.2182,5.0308 L103.2182,3.3538 L105.2182,3.3538 L105.2182,5.0308 L111.5132,5.0308 C113.2492,5.0308 114.6612,6.4438 114.6612,8.1788 L114.6612,13.8858 C114.6612,15.6218 113.2492,17.0638 111.5132,17.0638 L108.2482,17.0638 Z M102.6582,17.8578 C102.5412,21.6528 101.8052,24.6238 100.3932,26.7718 L98.7162,25.7128 C99.9232,23.8598 100.5402,21.2398 100.6582,17.7988 L102.6582,17.8578 Z M114.7792,2.4118 L99.3632,2.4118 C98.4222,2.4118 97.6862,3.2358 97.6572,4.1188 L97.0102,26.8598 L95.0102,26.8008 L95.6562,4.0608 C95.7162,2.0598 97.3032,0.4118 99.3632,0.4118 L114.7792,0.4118 L114.7792,2.4118 Z M90.3322,14.5038 L92.3322,14.5038 L92.3322,8.9428 L90.3322,8.9428 L90.3322,14.5038 Z M90.3322,6.2958 L92.3322,6.2958 L92.3322,0.7348 L90.3322,0.7348 L90.3322,6.2958 Z M94.3332,17.7108 L90.0082,27.0068 L88.1842,26.1238 L92.5092,16.8578 L94.3332,17.7108 Z" id="Fill-7" fill="#D70C18"></path>
            <path d="M154.6045,18.0634 L159.6055,25.7424 L157.9285,26.8304 L152.9275,19.1234 L154.6045,18.0634 Z M139.9245,15.0034 L152.4865,15.0034 L152.4865,6.0304 L139.9245,6.0304 L139.9245,15.0034 Z M154.4865,0.1474 L154.4865,4.0304 L158.8405,4.0304 L158.8405,6.0314 L154.4865,6.0314 L154.4865,15.0034 L159.2525,15.0034 L159.2525,17.0034 L133.1585,17.0034 L133.1585,15.0034 L137.9235,15.0034 L137.9235,6.0314 L133.5695,6.0314 L133.5695,4.0304 L137.9235,4.0304 L137.9235,0.1474 L139.9245,0.1474 L139.9245,4.0304 L152.4865,4.0304 L152.4865,0.1474 L154.4865,0.1474 Z M139.4235,18.7694 C138.3655,21.9474 136.5415,24.7714 134.3345,26.8594 L132.9225,25.4174 C134.9225,23.4764 136.5995,20.9464 137.5415,18.1224 L139.4235,18.7694 Z" id="Fill-9" fill="#D70C18"></path>
            <path d="M185.4316,8.0908 C185.4316,8.0308 185.4026,8.0018 185.3426,8.0018 L165.6916,8.0018 C165.6326,8.0018 165.6036,8.0308 165.6036,8.0908 L165.6036,10.4448 C165.6036,10.4738 165.6326,10.5028 165.6916,10.5028 L185.3426,10.5028 C185.4026,10.5028 185.4316,10.4738 185.4316,10.4448 L185.4316,8.0908 Z M187.4316,10.4448 C187.4316,11.5618 186.4906,12.5028 185.3426,12.5028 L165.6916,12.5028 C164.5436,12.5028 163.6026,11.5618 163.6026,10.4448 L163.6026,8.0908 C163.6026,6.9438 164.5436,6.0018 165.6916,6.0018 L185.3426,6.0018 C186.4906,6.0018 187.4316,6.9438 187.4316,8.0908 L187.4316,10.4448 Z M176.8696,0.0888 L176.8696,1.8538 L189.0206,1.8538 L189.0206,3.8548 L162.5736,3.8548 L162.5736,1.8538 L174.8406,1.8538 L174.8406,0.0888 L176.8696,0.0888 Z M162.3676,19.2108 L178.2236,19.2108 C179.7246,18.4458 181.0186,17.6218 182.1656,16.6518 L163.9266,16.6518 L163.9266,14.6508 L186.9026,14.6508 C185.2256,16.5038 183.5776,18.0338 181.9596,19.2108 L188.8436,19.2108 L188.8436,21.2108 L178.8126,21.2108 L178.5776,21.3288 L178.5776,23.2408 C178.5776,25.1238 177.1356,26.6238 175.3996,26.6238 L170.4566,26.6238 L170.4566,24.6238 L175.3996,24.6238 C176.0466,24.6238 176.5466,24.0058 176.5466,23.2408 L176.5466,21.2108 L162.3676,21.2108 L162.3676,19.2108 Z" id="Fill-11" fill="#D70C18"></path>
            <path d="M213.4336,18.0634 L218.4346,25.7424 L216.7576,26.8304 L211.7566,19.1234 L213.4336,18.0634 Z M198.7526,15.0034 L211.3156,15.0034 L211.3156,6.0304 L198.7526,6.0304 L198.7526,15.0034 Z M213.3156,0.1474 L213.3156,4.0304 L217.6696,4.0304 L217.6696,6.0314 L213.3156,6.0314 L213.3156,15.0034 L218.0816,15.0034 L218.0816,17.0034 L191.9876,17.0034 L191.9876,15.0034 L196.7526,15.0034 L196.7526,6.0314 L192.3996,6.0314 L192.3996,4.0304 L196.7526,4.0304 L196.7526,0.1474 L198.7526,0.1474 L198.7526,4.0304 L211.3156,4.0304 L211.3156,0.1474 L213.3156,0.1474 Z M198.2526,18.7694 C197.1946,21.9474 195.3706,24.7714 193.1636,26.8594 L191.7516,25.4174 C193.7516,23.4764 195.4286,20.9464 196.3706,18.1224 L198.2526,18.7694 Z" id="Fill-13" fill="#D70C18"></path>
            <mask id="mask-2" fill="white">
                <use xlink:href="#path-1"></use>
            </mask>
            <g id="Clip-16"></g>
            <path d="M242.113,23.7408 L244.142,23.7408 L244.142,17.0928 L242.113,17.0928 L242.113,23.7408 Z M239.288,26.8298 L239.288,15.3268 C239.288,13.8858 240.436,12.6798 241.877,12.6798 L244.23,12.6798 C245.672,12.6798 246.849,13.8858 246.849,15.3268 L246.849,24.8298 L246.878,24.8888 L246.937,24.9178 L247.996,24.8888 L247.996,26.8888 L246.937,26.9188 C246.378,26.9188 245.878,26.7128 245.495,26.3008 C245.083,25.8888 244.848,25.4178 244.848,24.8298 L244.848,15.3268 C244.848,14.9748 244.583,14.6808 244.23,14.6808 L241.877,14.6808 C241.553,14.6808 241.288,14.9748 241.288,15.3268 L241.288,26.8298 L239.288,26.8298 Z M230.05,21.3588 L230.05,15.3268 C230.05,13.8858 231.257,12.6798 232.669,12.6798 L235.758,12.6798 C237.199,12.6798 238.405,13.8858 238.405,15.3268 L238.405,21.3588 L236.375,21.3588 L236.375,15.3268 C236.375,14.9748 236.11,14.6808 235.758,14.6808 L232.669,14.6808 C232.315,14.6808 232.051,14.9748 232.051,15.3268 L232.051,21.3588 L230.05,21.3588 Z M235.669,16.2688 C235.581,17.8278 235.404,19.1818 235.081,20.3878 L238.847,25.7128 L237.229,26.8298 L234.257,22.6528 C233.521,24.2118 232.434,25.5068 231.021,26.8298 L229.668,25.3888 C232.228,23.0058 233.434,20.5938 233.669,16.1518 L235.669,16.2688 Z M244.024,9.0618 C244.024,9.0018 244.024,8.9728 243.995,8.9728 L225.078,8.9728 C225.049,8.9728 225.049,9.0018 225.049,9.0618 L225.049,9.6198 C225.049,9.6788 225.049,9.7088 225.078,9.7088 L243.995,9.7088 C244.024,9.7088 244.024,9.6788 244.024,9.6198 L244.024,9.0618 Z M223.226,22.2118 L227.226,22.2118 L227.226,19.3878 L223.226,19.3878 L223.226,22.2118 Z M223.226,17.3868 L227.226,17.3868 L227.226,15.3268 C227.226,14.9748 226.932,14.6808 226.579,14.6808 L223.843,14.6808 C223.52,14.6808 223.226,14.9748 223.226,15.3268 L223.226,17.3868 Z M246.024,9.6198 C246.024,10.7678 245.112,11.7088 243.995,11.7088 L225.078,11.7088 C223.961,11.7088 223.049,10.7678 223.049,9.6198 L223.049,9.0618 C223.049,7.9138 223.961,6.9728 225.078,6.9728 L243.995,6.9728 C245.112,6.9728 246.024,7.9138 246.024,9.0618 L246.024,9.6198 Z M221.225,26.8298 L221.225,15.3268 C221.225,13.8858 222.431,12.6798 223.843,12.6798 L226.579,12.6798 C228.021,12.6798 229.227,13.8858 229.227,15.3268 L229.227,26.8298 L227.226,26.8298 L227.226,24.2118 L223.226,24.2118 L223.226,26.8298 L221.225,26.8298 Z M235.493,-0.0002 L235.493,0.9998 L247.967,0.9998 L247.967,3.0008 L225.138,3.0008 L225.138,3.6488 C225.138,4.0008 225.373,4.2658 225.667,4.2658 L245.907,4.2658 L245.907,6.2668 L225.667,6.2668 C224.226,6.2668 223.137,5.0898 223.137,3.6488 L223.137,3.0008 L221.019,3.0008 L221.019,0.9998 L233.492,0.9998 L233.492,-0.0002 L235.493,-0.0002 Z" id="Fill-15" fill="#D70C18" mask="url(#mask-2)"></path>
        </g>
    </g>
</svg>