<?xml version="1.0" standalone="no"?><!DOCTYPE svg PUBLIC "-//W3C//DTD SVG 1.1//EN" "http://www.w3.org/Graphics/SVG/1.1/DTD/svg11.dtd"><svg t="1569353581255" class="icon" viewBox="0 0 2145 1024" version="1.1" xmlns="http://www.w3.org/2000/svg" p-id="819" xmlns:xlink="http://www.w3.org/1999/xlink" width="418.9453125" height="200"><defs><style type="text/css"></style></defs><path d="M411.208428 95.211043c-8.262382 28.337389-64.3433 223.303785-80.003097 277.693498a44.281204 44.281204 0 0 0 0 27.911359c3.872992 12.419393 13.87822 47.792716 17.970681 62.071145 0.839148 2.930564 1.962316 5.615838 4.350661 5.590018 1.871946-0.03873 3.227493-2.078505 4.29902-4.879969 12.961612-34.159786 65.673027-194.746927 65.673028-194.746927s49.884132 157.023989 63.284683 193.843229c1.329727 3.705162 2.323795 5.757848 4.673409 5.757847 1.833216 0 3.214583-2.607814 4.002092-5.370548 4.169921-14.549538 14.639908-50.968569 18.19015-63.091033a45.236542 45.236542 0 0 0 1.161898-27.033481C502.185 328.816986 443.263888 123.806631 434.549657 95.211043c-2.594904-8.688411-6.416256-13.374731-11.902994-13.374731-5.422188 0-9.04989 4.996159-11.451145 13.374731zM534.53739 597.357314s34.443805 115.518429 45.636751 149.445835a7.823443 7.823443 0 0 0 6.945565 5.822398h49.290273c-15.324137-53.602204-69.09417-242.746203-89.207907-313.002271-1.123168-3.976271-4.273201-14.239699-12.445213-14.239699-8.055823 0-11.618975 9.979408-12.755052 13.89113-20.165376 70.139878-74.503448 259.709906-89.917955 313.35084h48.012186c6.454986 0 7.384504-3.537332 8.107462-5.706208 12.006274-35.412053 46.333889-149.562025 46.33389-149.562025zM311.336884 597.357314s34.456715 115.518429 45.636751 149.445835a7.823443 7.823443 0 0 0 6.945565 5.822398h49.303183c-15.324137-53.602204-69.10708-242.746203-89.207906-313.002271-1.136078-3.976271-4.286111-14.239699-12.458123-14.239699-8.042913 0-11.618975 9.979408-12.755052 13.89113-20.139556 70.139878-74.490538 259.709906-89.917955 313.35084h48.025095a7.113395 7.113395 0 0 0 8.107463-5.706208c12.006274-35.412053 46.320979-149.562025 46.320979-149.562025z" fill="#D70C18" p-id="820"></path><path d="M787.80522 752.457717v-107.101128h63.775262v16.369845h-43.403326v27.149671h36.8967v16.692594h-36.8967v30.196424h45.029982v16.692594h-65.401918zM931.970877 752.457717l-26.413802-52.956705-11.554425-26.504173h-6.145147l0.322749 3.356593c0.309839 3.330773 0.697138 6.868105 1.084438 10.508717a297.665224 297.665224 0 0 1 2.323795 31.061393v34.534175h-19.042209v-107.101128h21.985683l26.542902 52.504856 11.554425 26.801102h6.261336l-0.516398-4.208651a355.114599 355.114599 0 0 1-3.459873-40.730961V645.369499h19.029299v107.101128zM974.083206 752.457717v-107.101128h63.775262v16.369845H994.455142v27.149671h36.88379v16.692594H994.455142v30.196424h45.029982v16.692594h-65.401918zM1116.815856 752.457717l-20.294476-39.891813h-17.712481v39.891813h-20.359026v-107.101128h37.361459c26.930202 0 40.020913 10.650727 40.020913 32.53313a30.751553 30.751553 0 0 1-17.196083 29.951135l-2.930563 1.420097 23.638158 43.196766z m-38.006957-55.20304h14.923927c14.200969 0 22.334252-7.048845 22.334252-19.364958 0-15.453236-12.742142-17.221903-22.334252-17.221903h-14.923927zM1200.666124 754.587862c-31.823081 0-51.601158-21.107804-51.601158-55.08685 0-33.126988 21.043254-56.287478 51.162219-56.287478a45.004162 45.004162 0 0 1 31.087213 11.941724l-10.263428 12.651773a29.667116 29.667116 0 0 0-19.945907-7.449054c-18.59036 0-31.074303 15.362867-31.074302 38.239337 0 24.967886 11.812624 38.704096 33.294818 38.704096a21.314364 21.314364 0 0 0 12.393573-3.537332l1.200627-0.929518v-22.850651h-17.480102V693.910994h34.895654v48.567315a50.86529 50.86529 0 0 1-33.669207 12.109553zM1280.95324 752.457717V714.825149l-31.487422-69.46856h21.223994l8.456032 23.09594c2.194695 6.325886 4.324841 12.354843 6.558266 18.66782l3.020933 8.610951h4.970339l0.722959-2.039775c2.220515-6.325886 4.376481-12.174104 6.558266-18.099781l11.050936-30.235155h20.772145l-31.629432 69.46856v37.632568zM1439.978275 752.457717v-90.731283h-29.770395v-16.369845h80.054736v16.369845h-29.912405v90.731283h-20.371936zM1542.974031 754.587862c-29.266906 0-47.444147-21.572563-47.444147-56.287477 0-33.979046 18.177241-55.08685 47.444147-55.086851s47.444147 21.107804 47.444147 55.086851c0 34.714915-18.20306 56.287478-47.444147 56.287477z m0-94.242795c-16.344025 0-26.478353 14.536628-26.478352 37.955318 0 24.064188 10.134328 38.988115 26.465442 38.988115 16.434394 0 26.646182-14.923928 26.646183-38.988115 0-23.418689-10.198878-37.955318-26.633273-37.955318zM1687.539898 752.457717l-9.42428-46.863198c-1.755756-8.520582-3.227493-17.531742-4.260291-26.091054l-0.335659-2.711094h-6.106417l-1.213537 7.875083c-1.071528 6.919745-2.181785 14.084779-3.472782 20.965795l-9.140261 46.824468h-27.60152l-19.068028-107.101128h20.733415l6.609905 48.928794 4.77669 38.600816h5.912767l0.438939-2.569084c2.065596-12.006274 4.273201-24.167468 6.506626-35.850992l10.715277-49.109534h17.286452l11.012206 49.186994c1.265177 6.661546 2.465805 13.60711 3.679342 20.655955 0.864968 5.009069 1.729936 10.095598 2.659455 15.156307l0.451849 2.517445h6.067686l0.30984-2.736915c0.787508-7.126305 1.613746-14.226789 2.452894-21.223993l1.691207-14.678639 6.751915-48.877154h18.848559l-18.073961 107.101128zM1755.47217 752.457717v-107.101128h63.775262v16.369845h-43.403326v27.149671h36.8967v16.692594h-36.8967v30.196424h45.029982v16.692594h-65.401918zM1907.164341 752.457717l-20.294476-39.891813h-17.712481v39.891813h-20.359026v-107.101128h37.361459c26.930202 0 40.020913 10.650727 40.020913 32.53313a30.751553 30.751553 0 0 1-17.196083 29.951135l-2.930564 1.420097 23.638159 43.196766z m-38.006957-55.20304h14.923927c14.200969 0 22.334252-7.048845 22.334252-19.364958 0-15.453236-12.742142-17.221903-22.334252-17.221903h-14.923927zM804.471994 293.779322a219.198414 219.198414 0 0 1-52.091737 102.272798l25.381005 26.917292a331.398981 331.398981 0 0 0 59.153492-123.277322z" fill="#231815" p-id="821"></path><path d="M812.566547 325.886423h57.087896v30.144784h-57.087896zM783.906409 375.047596h79.293048v30.118965h-79.293048zM773.655891 432.109672h95.998552v30.131875h-95.998552z" fill="#231815" p-id="822"></path><path d="M803.000257 399.253794v156.830339l66.886565-43.713165v-37.03871l-30.338434 18.52581v-92.641959l-36.548131-1.962315zM895.952056 306.379455a495.213615 495.213615 0 0 1-28.750508 86.832472l31.151762 13.336001a470.542659 470.542659 0 0 0 29.576746-92.1772z" fill="#231815" p-id="823"></path><path d="M1026.084573 374.750667h-120.695328l9.024071-32.40403h111.671257v32.40403zM875.257371 411.828106h158.857205v33.436828H875.257371z" fill="#231815" p-id="824"></path><path d="M936.928307 294.528101a1025.774734 1025.774734 0 0 1-2.517445 107.591706c-4.131191 46.604999-14.911018 85.464015-67.803173 124.000281l24.696777 29.783306s56.029278-39.517424 68.75851-100.103923a374.595747 374.595747 0 0 0 11.541515-84.302117c0.387299-38.497536 0-77.588932 0-77.588932z" fill="#231815" p-id="825"></path><path d="M971.397932 377.384301s0.813328 31.758531 1.807396 48.786784c0.968248 17.015343 9.979408 56.584407 61.851676 94.074966l-21.327274 37.490559s-54.480082-41.54429-63.078123-99.703714L955.337927 382.67739zM1078.18922 360.975727h81.887952v36.057551h-81.887952z" fill="#231815" p-id="826"></path><path d="M1102.511607 293.095094h34.869835v192.306943H1102.511607z" fill="#231815" p-id="827"></path><path d="M1074.458238 488.42297s52.517766-11.941724 84.818516-23.470329v35.644433s-28.944157 10.921836-79.125218 26.310522zM1154.590434 315.790825h182.947213v27.975909H1154.590434z" fill="#231815" p-id="828"></path><path d="M1185.587277 294.334451h34.030686v69.881679h-34.030686zM1271.56769 294.334451h34.056507v69.881679h-34.056507z" fill="#231815" p-id="829"></path><path d="M1229.442452 355.514808s-15.879266 28.363208-82.662551 60.767239l20.165376 32.04255s58.172334-36.277021 77.588932-63.646162a235.21969 235.21969 0 0 0 75.988095 60.599409l19.403688-31.009753a250.982765 250.982765 0 0 1-81.513563-58.753283z" fill="#231815" p-id="830"></path><path d="M1198.690899 413.441853h92.435399v27.56279h-92.435399zM1173.774653 456.819359v93.803856h143.236139v-93.803856z m108.547044 63.826901h-75.394236v-33.230268h75.394236zM1681.83369 316.139394l25.045346-25.045346 37.787488 37.774578-25.045346 25.058256M1690.238082 352.597155l45.146172 33.733757-21.211084 28.376118-45.133262-33.720847zM1736.339592 440.217135l-35.863902 99.251864-34.740735-21.185264 40.343662-98.141607 30.260975 20.075007zM1823.907932 549.590417l-6.881015-0.07746-7.836353-31.229222h14.717368v31.306682zM1391.48842 546.169275h33.617567v-50.193971h36.97416v13.387641q0 8.933701-10.082688 8.92079h-10.082688l7.836353 28.995797c34.366345 2.969294 48.399485-4.260291 48.192925-26.762372v-128.260571h-106.455629z m33.617567-124.916889h38.097328v13.387641h-38.097328z m0 36.80633h38.097328v13.374731h-38.097328zM1551.739902 412.344505h38.097328l0.07746-0.03873h0.903698a34.882744 34.882744 0 0 0 34.882744-34.882744v-4.131191q-14.588268-5.551288-33.617567-13.374731c0.735868 15.621066-2.956384 22.321342-12.329023 22.295522h-17.944861c-8.017093 0.02582-10.056868-1.290997-10.069779-8.907881v-11.593155l70.604637-26.336343-25.858674-26.749462-44.668503 17.389732v-35.244223h-35.941362v98.141607q-1.136078 25.677934 35.863902 23.418689zM1450.874291 324.233946l13.361821 23.14758-36.8967 4.72505c40.343662-53.537654-1.265177 1.420097 40.343663-53.537654l-40.343663-11.141306-45.94659 65.789217 6.726095 28.995798 91.170223-8.740052 6.325886 10.973477 8.055822-4.80251 4.234471-2.530354 0.24529-0.14201 15.491966-9.24354-33.630477-55.771079zM1580.877709 514.940052h-20.178286a7.900903 7.900903 0 0 1-8.959521-8.9337V485.027647l74.555089-34.095236s-23.496149-20.320296-28.05337-24.206197l-46.527539 21.611293-0.051639-29.305636h-35.786443v101.498199q-1.136078 26.762372 24.658047 25.652115h50.42635c28.957067 0.322749 38.097327-14.136419 38.097328-51.317139l-36.97416-11.141306c1.484647 22.295522-1.226447 31.590701-11.205856 31.229222zM1795.738373 466.979507c-27.5757 52.569406 0 0-27.75644 52.711415 29.137807 11.154216 1.975226 0.826238 31.113033 11.967544l30.260974-57.991594zM1908.933007 465.998349l-33.617567 6.700275 30.248065 57.991594c29.137807-11.154216 1.975226-0.826238 31.113032-11.980454-27.75644-52.711416-0.16783-0.1291-27.75644-52.711415z" fill="#231815" p-id="831"></path><path d="M1912.2896 354.340001h-44.836333q5.602928-21.172354 5.602928-22.308432h51.549518v-30.106054H1753.174195v101.47238q0 79.215588-38.110237 121.573206a103.563795 103.563795 0 0 1 30.248064 15.621066 193.73995 193.73995 0 0 0 40.356573-121.573206V332.044479h49.316093l-3.369503 22.308432h-33.630477v104.828972h36.98707v53.537654c-0.10328 4.983249-3.743892 5.577108-15.685616 5.577108h-10.082688a95.043214 95.043214 0 0 1 7.836353 31.229222c40.343662 0.722958 52.633956-2.155965 52.672685-20.075006v-70.268978h42.589998z m-34.740735 78.066601h-47.069758v-13.387641h47.069758z m0-39.039756h-47.069758v-13.374731h47.069758z" fill="#231815" p-id="832"></path></svg>