<?xml version="1.0" standalone="no"?><!DOCTYPE svg PUBLIC "-//W3C//DTD SVG 1.1//EN" "http://www.w3.org/Graphics/SVG/1.1/DTD/svg11.dtd"><svg t="1569354275256" class="icon" viewBox="0 0 1175 1024" version="1.1" xmlns="http://www.w3.org/2000/svg" p-id="829" xmlns:xlink="http://www.w3.org/1999/xlink" width="229.4921875" height="200"><defs><style type="text/css"></style></defs><path d="M564.742321 130.718025a386.94558 386.94558 0 1 0 386.94558 386.94558 386.94558 386.94558 0 0 0-386.94558-386.94558z m0 740.314074a353.317926 353.317926 0 1 1 353.317926-353.368494 353.317926 353.317926 0 0 1-353.317926 353.317926z m78.279111-318.072099c-17.698765 0-31.149827 15.928889-47.179852 15.928889a215.773235 215.773235 0 0 1-85.864296-85.864296c0-16.940247 15.928889-25.283951 15.928889-42.881581 0-12.641975-47.179852-90.010864-66.49679-90.010864-19.367506 0-66.547358 34.487309-66.547358 66.49679 0 92.539259 170.717235 270.032593 277.617777 270.032593a72.817778 72.817778 0 0 0 66.496791-66.547358 213.649383 213.649383 0 0 0-93.955161-67.154173" fill="#D62522" p-id="830"></path></svg>