<?xml version="1.0" standalone="no"?><!DOCTYPE svg PUBLIC "-//W3C//DTD SVG 1.1//EN" "http://www.w3.org/Graphics/SVG/1.1/DTD/svg11.dtd"><svg t="1569355372361" class="icon" viewBox="0 0 1024 1024" version="1.1" xmlns="http://www.w3.org/2000/svg" p-id="1873" xmlns:xlink="http://www.w3.org/1999/xlink" width="200" height="200"><defs><style type="text/css"></style></defs><path d="M958.851662 615.987232a462.438218 462.438218 0 0 0-226.369064-288.681734c-13.42119-7.543113-27.624443-13.862677-41.474506-20.850778 0.113525-0.214436 0.113525-0.555012 0.454101-0.782062l7.089012-6.420475a209.37814 209.37814 0 0 0 56.901306-78.080046 306.68177 306.68177 0 0 0 10.595677-34.713455c7.101626-43.03863-1.009112-69.187246-27.498304-90.820086a111.241991 111.241991 0 0 0-119.201362-15.653851c-2.939039 1.236162-4.957263 2.018224-7.896302-0.681151a151.278512 151.278512 0 0 0-199.438386-1.135251 6.218653 6.218653 0 0 1-7.883688 1.475827 114.067505 114.067505 0 0 0-70.322497-7.328677c-45.851529 9.132464-83.831985 46.75973-77.070934 98.262288a206.363417 206.363417 0 0 0 54.656032 116.501988c6.30695 6.874576 13.068001 13.295051 19.942577 20.283152l-5.070788 2.3588A466.790014 466.790014 0 0 0 49.414641 702.758256a425.113685 425.113685 0 0 0 11.831839 141.401828 172.570777 172.570777 0 0 0 166.881908 128.346441c189.52386-0.441487 379.047719 0 568.685104-0.22705a166.04939 166.04939 0 0 0 141.742404-74.485085 190.141941 190.141941 0 0 0 30.096767-81.233521 465.478168 465.478168 0 0 0-9.801001-200.561023z m-329.601228-108.958875l-91.034522 91.047136h67.724033a18.81994 18.81994 0 0 1 0 37.63988h-74.043598l-1.450598 1.463213v36.277578h75.494196a18.81994 18.81994 0 1 1 0 37.639881h-75.494196v56.674256a18.81994 18.81994 0 1 1-37.63988 0v-56.674256H417.311672a18.81994 18.81994 0 1 1 0-37.639881h75.494197v-36.277578l-1.463213-1.463213h-74.043598a18.81994 18.81994 0 1 1 0-37.63988h67.509598l-90.946225-90.820086 0.353189-0.340575a18.454137 18.454137 0 0 1 3.153475-29.857103 18.315384 18.315384 0 0 1 18.59289 0 17.520708 17.520708 0 0 1 4.389637 3.721101l0.227051-0.227051 91.047136 90.933611 91.148047-91.160661 0.340575 0.340575a17.646847 17.646847 0 0 1 3.948151-3.052564 18.542434 18.542434 0 0 1 22.200466 29.415617z m0 0" fill="#006ABC" p-id="1874"></path></svg>