<?xml version="1.0" standalone="no"?><!DOCTYPE svg PUBLIC "-//W3C//DTD SVG 1.1//EN" "http://www.w3.org/Graphics/SVG/1.1/DTD/svg11.dtd"><svg t="1569355367583" class="icon" viewBox="0 0 1024 1024" version="1.1" xmlns="http://www.w3.org/2000/svg" p-id="1760" xmlns:xlink="http://www.w3.org/1999/xlink" width="200" height="200"><defs><style type="text/css"></style></defs><path d="M887.978918 126.201381h-146.769311v66.5961a32.703894 32.703894 0 0 1-32.969368 32.969368H305.452661a33.121068 33.121068 0 0 1-32.982009-32.969368v-65.938736H125.713983a38.215644 38.215644 0 0 0-38.152436 38.139795v775.197321a38.215644 38.215644 0 0 0 38.152436 38.139794h763.554381c16.813366 0 36.205625-4.525703 36.205625-38.784517V164.341175a37.672054 37.672054 0 0 0-37.495071-38.152436zM303.518492 422.963618l100.210192-100.210192a30.630667 30.630667 0 0 1 43.322862 0 29.290654 29.290654 0 0 1-0.632081 40.731328l-51.742187 51.716903h292.236533a30.213493 30.213493 0 0 1 30.390476 29.745753 28.279324 28.279324 0 0 1-28.443665 28.443665h-293.538621l51.084822 51.07218a29.834244 29.834244 0 0 1 1.946811 40.086605 27.508184 27.508184 0 0 1-21.996434 10.353495 28.291965 28.291965 0 0 1-20.681705-8.406684l-102.144361-102.157002a28.886122 28.886122 0 0 1 0-41.376051z m406.6812 280.606235l-105.39326 105.380618a31.174257 31.174257 0 0 1-20.681705 8.406683 28.911405 28.911405 0 0 1-21.339069-9.051406 30.301984 30.301984 0 0 1 1.289446-42.033416l54.308438-54.308438H325.489643a30.213493 30.213493 0 0 1-30.390476-29.745752 29.265371 29.265371 0 0 1 29.10103-28.443665h294.170703l-51.716904-51.716904a30.630667 30.630667 0 0 1 0-43.322862 29.290654 29.290654 0 0 1 40.731329 0.657365l102.801725 102.789084a28.291965 28.291965 0 0 1 8.406683 20.694346 29.897452 29.897452 0 0 1-8.406683 20.694347z m0 0" fill="#FF9300" p-id="1761"></path><path d="M330.015346 195.389015a24.297211 24.297211 0 0 1-23.917962-23.930603V68.011963a24.297211 24.297211 0 0 1 23.917962-23.917962h353.017485a24.297211 24.297211 0 0 1 23.917962 23.917962v102.801726a24.297211 24.297211 0 0 1-23.917962 23.917962H330.027988z m0 0" fill="#FF9300" p-id="1762"></path></svg>