<?xml version="1.0" standalone="no"?><!DOCTYPE svg PUBLIC "-//W3C//DTD SVG 1.1//EN" "http://www.w3.org/Graphics/SVG/1.1/DTD/svg11.dtd"><svg t="1569355359715" class="icon" viewBox="0 0 1024 1024" version="1.1" xmlns="http://www.w3.org/2000/svg" p-id="1532" xmlns:xlink="http://www.w3.org/1999/xlink" width="200" height="200"><defs><style type="text/css"></style></defs><path d="M36.341555 354.254669l60.102239 46.972443-56.541828 108.311457c-28.320885 49.995669 20.363054 98.654622 51.294907 115.632162 30.482117 16.690208 77.82934 18.651558 122.003424 18.089388l79.51585-130.048705 60.10224 32.530915-104.263831-193.261619z m0 0" fill="#FFFFFF" p-id="1533"></path><path d="M45.16138 619.536537l129.024305 238.472595c25.984756 33.105578 74.93104 40.876019 125.551343 39.66423h136.170113V671.955784l-258.161044-1.77396a160.530821 160.530821 0 0 1-132.584717-50.645287z m0 0M857.122527 180.131822l-70.233796 29.807513L719.565727 107.936677c-30.007396-48.958777-96.11861-30.107337-125.926123-11.155955-29.357777 18.564109-54.018309 58.977899-74.93104 97.892569l75.205879 132.597209-57.678661 36.853379 219.621154 2.436071z m0 0" fill="#FFFFFF" p-id="1534"></path><path d="M620.823656 59.252738l-271.090959-2.723402c-41.550623 6.658594-72.120189 45.573264-95.656381 90.496908l-66.011273 119.092632 197.484142 109.435797 126.675683-224.868076a160.43088 160.43088 0 0 1 108.598788-91.433859z m0 0" fill="#FFFFFF" p-id="1535"></path><path d="M632.641723 979.250503l7.970324-75.855498 121.903483-9.481937c57.378838-2.52352 72.857257-69.484236 70.883415-104.738553-1.961349-34.692147-25.410093-75.855498-49.321065-112.996208l-152.473049 1.411671-4.309971-68.172505-108.586296 190.912997z m0 0" fill="#FFFFFF" p-id="1536"></path><path d="M852.912497 831.187367l133.796506-235.836641c14.366572-39.576781-4.95959-85.150045-32.805754-127.537678l-72.107697-115.432279-191.48766 119.654802L825.528562 691.844116a160.380909 160.380909 0 0 1 27.383935 139.343251z m0 0" fill="#FFFFFF" p-id="1537"></path></svg>