<?xml version="1.0" standalone="no"?><!DOCTYPE svg PUBLIC "-//W3C//DTD SVG 1.1//EN" "http://www.w3.org/Graphics/SVG/1.1/DTD/svg11.dtd"><svg t="1569355380034" class="icon" viewBox="0 0 1024 1024" version="1.1" xmlns="http://www.w3.org/2000/svg" p-id="2097" xmlns:xlink="http://www.w3.org/1999/xlink" width="200" height="200"><defs><style type="text/css"></style></defs><path d="M426.685743 82.327732h-84.927289a85.179673 85.179673 0 0 0-84.92729 84.927289v721.818862a85.167054 85.167054 0 0 0 84.92729 84.91467h339.683918a85.179673 85.179673 0 0 0 84.927289-84.927289v-721.818862a85.179673 85.179673 0 0 0-84.927289-84.91467h-84.927289A42.577217 42.577217 0 0 0 554.064057 39.876706h-84.927289a42.589837 42.589837 0 0 0-42.451025 42.463645zM681.442372 124.803996a42.589837 42.589837 0 0 1 42.451025 42.463644v721.818862a42.589837 42.589837 0 0 1-42.451025 42.451026H341.758454a42.577217 42.577217 0 0 1-42.451026-42.451026v-721.818862a42.577217 42.577217 0 0 1 42.451026-42.463644z m0 764.282506V506.913701H341.758454v382.147563z m0 0" fill="#FFFFFF" p-id="2098"></path></svg>