<?xml version="1.0" standalone="no"?><!DOCTYPE svg PUBLIC "-//W3C//DTD SVG 1.1//EN" "http://www.w3.org/Graphics/SVG/1.1/DTD/svg11.dtd"><svg t="1569354792893" class="icon" viewBox="0 0 2245 1024" version="1.1" xmlns="http://www.w3.org/2000/svg" p-id="1069" xmlns:xlink="http://www.w3.org/1999/xlink" width="438.4765625" height="200"><defs><style type="text/css"></style></defs><path d="M357.066579 48.373202c-8.804045 30.139755-68.421412 237.476252-85.085336 295.291119a47.085703 47.085703 0 0 0 0 29.698326c4.132261 13.206068 14.76333 50.825583 19.128567 66.005817 0.882857 3.114523 2.084523 5.971546 4.610475 5.934761 1.986428-0.036786 3.433332-2.207142 4.573689-5.186785 13.782378-36.319753 69.843792-207.091259 69.843793-207.091259s53.044987 166.982578 67.293317 206.134831c1.422381 3.948332 2.476904 6.130951 4.96607 6.130951 1.961904 0 3.421071-2.77119 4.25488-5.714047 4.438808-15.486782 15.572615-54.197606 19.349281-67.097126a48.103441 48.103441 0 0 0 1.22619-28.75416C453.812984 296.799332 391.154666 78.794981 381.884669 48.373202c-2.746666-9.245474-6.805355-14.223806-12.642021-14.223806-5.763094 0-9.625593 5.309403-12.176069 14.223806zM488.207619 582.366763s36.626301 122.839732 48.532607 158.914246a8.325831 8.325831 0 0 0 7.381665 6.204523h52.431892c-16.308329-57.017843-73.485577-258.149818-94.858072-332.861586-1.213928-4.218094-4.561427-15.143449-13.242854-15.143448-8.583331 0-12.372259 10.618807-13.561663 14.775591-21.458328 74.589148-79.248671 276.174814-95.642834 333.229443h51.070821c6.866665 0 7.847617-3.764404 8.620117-6.069642 12.752378-37.668562 49.268321-159.036866 49.268321-159.036866zM250.853986 582.366763s36.638562 122.839732 48.532608 158.914246a8.313569 8.313569 0 0 0 7.393926 6.204523h52.41963c-16.283806-57.017843-73.485577-258.149818-94.858072-332.861586-1.213928-4.218094-4.561427-15.143449-13.242854-15.143448-8.558807 0-12.372259 10.618807-13.561663 14.775591-21.433804 74.589148-79.236409 276.174814-95.642834 333.229443h51.070821a7.565593 7.565593 0 0 0 8.632379-6.069642c12.752378-37.668562 49.256059-159.036866 49.256059-159.036866z" fill="#D70C18" p-id="1070"></path><path d="M757.552553 747.301603v-113.888543h67.820579v17.399638h-46.16606v28.876779h39.238085v17.755234h-39.238085v32.11392h47.894988v17.742972h-69.549507zM910.850849 747.301603l-28.079755-56.306653-12.298687-28.202374h-6.523332l0.343333 3.580476c0.318809 3.555952 0.735714 7.308093 1.152619 11.182854a316.565518 316.565518 0 0 1 2.45238 33.021301v36.724396h-20.232138v-113.888543h23.371185l28.23916 55.828438 12.286425 28.49666h6.645951l-0.551785-4.475594a377.629789 377.629789 0 0 1-3.666309-43.309037v-36.540467h20.232138v113.888543zM955.631314 747.301603v-113.888543h67.820579v17.399638h-46.153798v28.876779h39.238085v17.755234h-39.238085v32.11392h47.882726v17.742972h-69.549507zM1107.421396 747.301603l-21.580947-42.42618h-18.834281v42.42618h-21.654518v-113.888543h39.728561c28.643803 0 42.573323 11.317735 42.573323 34.603086a32.702492 32.702492 0 0 1-18.294757 31.844159l-3.126785 1.495952 25.14916 45.945346z m-40.415228-58.697723h15.866901c15.094401 0 23.763566-7.504284 23.763566-20.599995 0-16.430948-13.561663-18.319281-23.763566-18.319282h-15.866901zM1196.589946 749.570055c-33.842849 0-54.87201-22.43928-54.87201-58.575105 0-35.240706 22.377971-59.862604 54.393796-59.862604a47.858203 47.858203 0 0 1 33.058087 12.691068l-10.913093 13.463568a31.549873 31.549873 0 0 0-21.200828-7.93345c-19.766186 0-33.045825 16.345115-33.045825 40.68499 0 26.534755 12.568449 41.13868 35.40011 41.13868a22.672256 22.672256 0 0 0 13.193807-3.752141l1.275237-0.980953V702.116495H1195.290184v-17.080829h37.092253v51.64713a54.074987 54.074987 0 0 1-35.792491 12.874997zM1281.98183 747.301603v-40.010585l-33.487254-73.877958h22.561899l8.987974 24.548327c2.329761 6.731784 4.598213 13.144759 6.977023 19.864281l3.212618 9.15964h5.284879l0.760238-2.182618c2.366547-6.70726 4.659523-12.936306 6.989284-19.251186l11.746902-32.138444h22.083685l-33.622134 73.877958v40.010585zM1451.085717 747.301603v-96.488905h-31.66023v-17.399638h85.134384v17.399638h-31.819635v96.488905h-21.654519zM1560.596762 749.570055c-31.108445 0-50.445464-22.942018-50.445464-59.862604 0-36.135825 19.337019-58.575105 50.445464-58.575105s50.457726 22.43928 50.457726 58.575105c0 36.908324-19.337019 59.850343-50.457726 59.850342z m0-100.216523c-17.362853 0-28.153326 15.449996-28.153327 40.341657 0 25.602851 10.790474 41.482014 28.153327 41.482013 17.47321 0 28.324993-15.879163 28.324993-41.469751 0-24.891661-10.851783-40.341657-28.324993-40.341657zM1714.336486 747.301603l-10.005712-49.832369a345.049916 345.049916 0 0 1-4.536903-27.748683l-0.355595-2.869285h-6.498808l-1.2875 8.338093c-1.140357 7.381665-2.329761 14.996306-3.690832 22.316661l-9.723689 49.795583h-29.354992l-20.268924-113.888543h22.046899l7.02607 52.039511 5.088689 41.028323h6.278094l0.465952-2.722142c2.207142-12.752378 4.549166-25.700946 6.915713-38.134515l11.391307-52.211177h18.392852l11.710116 52.309273c1.348809 7.087379 2.624047 14.469044 3.911547 21.948804 0.919643 5.346189 1.839285 10.741426 2.820238 16.124401l0.490476 2.685356h6.44976l0.331071-2.918333c0.833809-7.577855 1.716666-15.118925 2.599523-22.561899l1.814762-15.621663 7.160951-51.965939h20.048209l-19.226662 113.888543zM1786.583611 747.301603v-113.888543h67.820579v17.399638h-46.153798v28.876779h39.225824v17.755234h-39.225824v32.11392h47.882726v17.742972h-69.549507zM1947.888929 747.301603l-21.580947-42.42618h-18.822019v42.42618h-21.666781v-113.888543h39.728562c28.643803 0 42.573323 11.317735 42.573323 34.603086a32.702492 32.702492 0 0 1-18.294757 31.844159l-3.114523 1.495952 25.136898 45.945346z m-40.402966-58.697723h15.866901c15.082139 0 23.751304-7.504284 23.751303-20.599995 0-16.430948-13.561663-18.319281-23.751303-18.319282h-15.866901zM775.258739 259.535413a233.098753 233.098753 0 0 1-55.38701 108.763069l26.976184 28.619278s49.758797-62.535699 62.92808-131.091992z" fill="#231815" p-id="1071"></path><path d="M783.878856 293.672547h60.708676v32.052612h-60.708676zM753.40803 345.957296h84.325099v32.028088h-84.325099zM742.494938 406.629186h102.092594v32.04035h-102.092594z" fill="#231815" p-id="1072"></path><path d="M773.71374 371.70729v166.774126l71.11903-46.497131v-39.385229l-32.261064 19.704876v-98.512118l-38.857966-2.084524zM872.544668 272.92541a526.624157 526.624157 0 0 1-30.568921 92.356644l33.131658 14.174758a500.383687 500.383687 0 0 0 31.451778-98.033905z" fill="#231815" p-id="1073"></path><path d="M1010.944753 345.650749H882.587165l9.588808-34.468206h118.76878v34.468206zM850.534554 385.072763h168.932221v35.559515H850.534554z" fill="#231815" p-id="1074"></path><path d="M916.123467 260.320175a1090.818781 1090.818781 0 0 1-2.673095 114.428067c-4.414285 49.562607-15.854639 90.872954-72.099982 131.864491l26.264993 31.672493s59.592843-42.033799 73.105459-106.457831a398.364665 398.364665 0 0 0 12.286425-89.634502c0.404643-40.954752 0-82.522599 0-82.522599z" fill="#231815" p-id="1075"></path><path d="M952.774291 348.446463s0.870595 33.781539 1.937381 51.867844c1.03 18.098567 10.594283 60.181414 65.772841 100.057118l-22.684519 39.851181s-57.925224-44.179632-67.072602-106.016402l4.978332-80.14379zM1066.344025 330.997776h87.084027v38.355229h-87.084027z" fill="#231815" p-id="1076"></path><path d="M1092.204376 258.799699h37.079991v204.503997h-37.079991z" fill="#231815" p-id="1077"></path><path d="M1062.371169 466.528577s55.852963-12.715592 90.210812-24.965232v37.901538s-30.777373 11.624283-84.153432 27.98166zM1147.591386 282.943383h194.559596v29.747374H1147.591386z" fill="#231815" p-id="1078"></path><path d="M1180.551378 260.123984h36.197134v74.307125h-36.197134zM1271.98838 260.123984h36.221658v74.307125h-36.221658z" fill="#231815" p-id="1079"></path><path d="M1227.183391 325.185635s-16.872377 30.164278-87.905574 64.620222l21.458328 34.075825s61.849033-38.575943 82.498075-67.685698a250.130534 250.130534 0 0 0 80.818195 64.436294l20.624519-32.959992a266.904816 266.904816 0 0 1-86.691646-62.498913z" fill="#231815" p-id="1080"></path><path d="M1194.493161 386.789429h98.303666v29.305946h-98.303666zM1167.995191 432.906442v99.762833h152.329606v-99.762833z m115.421281 67.881888h-80.180575v-35.338801h80.192837zM1708.279107 283.31124l26.63285-26.63285 40.182252 40.182252-26.645112 26.63285M1717.218033 322.083374l48.017607 35.866062-22.561899 30.176541-48.005345-35.866063zM1766.241116 415.261565l-38.134514 105.550451-36.94511-22.537376 42.904394-104.361046 32.17523 21.347971zM1859.357998 531.577965l-7.308093-0.098095-8.350355-33.20523h15.658448v33.303325zM1399.512158 527.923919h35.743444v-53.363797h39.336181v14.223806q0 9.502974-10.729164 9.490712h-10.729164l8.338093 30.838683c36.540467 3.151309 51.475464-4.536904 51.254749-28.472136V364.252054h-113.214139z m35.743444-132.833182h40.525585v14.236068h-40.525585z m0 39.13999h40.525585v14.223806h-40.525585zM1569.928069 385.612287h40.513324l0.085833-0.036786h0.96869a37.092253 37.092253 0 0 0 37.079991-37.079991v-4.402023q-15.499044-5.922499-35.743444-14.223806c0.7725 16.602615-3.139047 23.72678-13.120235 23.714518h-19.054995c-8.546546 0.012262-10.70464-1.373333-10.729164-9.490712v-12.310949l75.079625-28.006184-27.491184-28.447612-47.490346 18.490948v-37.484634h-38.232609v104.361046q-1.201666 27.307255 38.134514 24.916185zM1462.673214 291.919095l14.199283 24.621899-39.238086 5.02738c42.916656-56.93201-1.348809 1.508214 42.916656-56.93201l-42.916656-11.857259-48.851417 69.966411 7.148689 30.838683 96.954857-9.294521 6.731784 11.67333 8.558808-5.125475 4.51238-2.685356 0.245238-0.147143 16.467734-9.834045-35.743444-59.298557zM1600.913895 494.718689h-21.458328a8.399403 8.399403 0 0 1-9.527498-9.490712V462.886792l79.285457-36.258444s-24.989756-21.617733-29.833207-25.749993l-49.489036 22.991065-0.036785-31.157492h-38.060943v107.916997q-1.201666 28.472136 26.215946 27.282732h53.621296c30.801897 0.355595 40.525585-15.033092 40.525585-54.565463l-39.323919-11.857259c1.581785 23.72678-1.312023 33.609873-11.918568 33.217492zM1829.402172 443.721439c-29.330469 55.914272 0 0-29.514397 56.049153 30.985826 11.857259 2.109047 0.870595 33.082611 12.740116l32.187492-61.677366zM1949.765 442.679178l-35.743443 7.111903 32.17523 61.677366c30.985826-11.857259 2.109047-0.870595 33.082611-12.727854-29.502136-56.061415-0.183929-0.147143-29.502136-56.061415z" fill="#231815" p-id="1081"></path><path d="M1953.345475 323.934921h-47.674274q5.947022-22.512852 5.959285-23.72678h54.810701v-32.003564H1784.106707v107.904736q0 84.239265-40.513323 129.27723a110.136402 110.136402 0 0 1 32.17523 16.614877 206.024474 206.024474 0 0 0 42.916656-129.27723v-92.516049h52.431892l-3.580475 23.72678h-35.755706v111.485211h39.336181v56.93201c-0.122619 5.297142-3.985118 5.922499-16.688448 5.922498h-10.729164a101.062594 101.062594 0 0 1 8.338093 33.20523c42.916656 0.784762 55.975582-2.280714 56.024629-21.335709V435.420132h45.283203z m-36.94511 83.013075h-50.053083v-14.223806h50.053083z m0-41.506538h-50.053083v-14.223806h50.053083z" fill="#231815" p-id="1082"></path></svg>